<svg xmlns="http://www.w3.org/2000/svg" xmlns:xlink="http://www.w3.org/1999/xlink" width="14" height="14" viewBox="0 0 14 14">
    <defs>
        <path id="a" d="M7.705 3.484V6.31h2.787v1.38H7.705v2.826h-1.41V7.69H3.508V6.31h2.787V3.484h1.41zM6.984 0c1.923 0 3.573.685 4.95 2.054C13.311 3.424 14 5.072 14 7s-.689 3.577-2.066 4.946C10.557 13.316 8.907 14 6.984 14c-1.924 0-3.569-.685-4.935-2.054C.683 10.576 0 8.928 0 7s.683-3.577 2.05-4.946C3.414.684 5.06 0 6.983 0zM7 12.62c1.541 0 2.858-.548 3.95-1.643C12.045 9.88 12.59 8.556 12.59 7s-.546-2.881-1.64-3.977C9.859 1.928 8.542 1.38 7 1.38c-1.541 0-2.858.548-3.95 1.643C1.955 4.12 1.41 5.444 1.41 7s.546 2.881 1.64 3.977C4.141 12.072 5.458 12.62 7 12.62z"/>
    </defs>
    <use fill="#4B74FF" fill-rule="evenodd" xlink:href="#a"/>
</svg>
