<svg xmlns="http://www.w3.org/2000/svg" width="25" height="24" viewBox="0 0 25 24">
    <path fill="#A8B3D6" fill-rule="nonzero" d="M16.145 0a.82.82 0 0 1 .813.717l.006.102v8.14a.82.82 0 0 1-.716.812l-.103.007-2.753-.001v2.667h8.133c.403 0 .736.275.79.63l.006.099V16h1.9a.78.78 0 0 1 .772.674l.007.105v6.442a.78.78 0 0 1-.673.772L24.22 24h-5.585a.78.78 0 0 1-.772-.673l-.007-.106v-6.442a.78.78 0 0 1 .674-.772l.105-.007h2.091v-2.098l-7.335-.001V16h1.9a.78.78 0 0 1 .772.674l.007.105v6.442a.78.78 0 0 1-.673.772l-.106.007H9.708a.78.78 0 0 1-.772-.673l-.007-.106v-6.442a.78.78 0 0 1 .673-.772L9.708 16h1.899v-2.099H5.165L5.164 16h1.2a.78.78 0 0 1 .772.673l.007.106v6.442a.78.78 0 0 1-.674.772L6.364 24H.779a.78.78 0 0 1-.772-.673L0 23.22v-6.442a.78.78 0 0 1 .673-.772L.78 16h2.792v-2.827c0-.369.3-.674.689-.722l.108-.007h7.239V9.777H8.855a.82.82 0 0 1-.813-.716l-.006-.103V.82a.82.82 0 0 1 .716-.813L8.855 0h7.29zm7.297 17.558h-4.026v4.884h4.026v-4.884zm-17.858 0H1.558v4.884h4.026v-4.884zm8.929 0h-4.026v4.884h4.026v-4.884zm.813-15.92H9.674V8.14h5.652v-6.5z"/>
</svg>
