<svg xmlns="http://www.w3.org/2000/svg" width="18" height="20" viewBox="0 0 18 20">
    <path fill="#333539" fill-rule="nonzero" d="M17.1 14.545h-.9V7.273C16.2 3.263 12.97 0 9 0S1.8 3.263 1.8 7.273v7.272H.9c-.498 0-.9.407-.9.91 0 .502.402.909.9.909h4.5C5.4 18.369 7.015 20 9 20s3.6-1.63 3.6-3.636h4.5c.498 0 .9-.407.9-.91a.904.904 0 0 0-.9-.909zM9 18.182c-.993 0-1.8-.816-1.8-1.818h3.6A1.811 1.811 0 0 1 9 18.182zm5.4-3.637H3.6V7.273c0-3.008 2.422-5.455 5.4-5.455s5.4 2.447 5.4 5.455v7.272z"/>
</svg>
