<svg xmlns="http://www.w3.org/2000/svg" width="16" height="16" viewBox="0 0 16 16">
    <path fill="#474647" fill-rule="nonzero" d="M12.5 0c.245 0 .45.193.492.447L13 .545V1h2.012c.506 0 .924.387.981.884L16 2v13a.997.997 0 0 1-.873.993l-.115.007H.988a.994.994 0 0 1-.981-.884L0 15V2c0-.512.382-.935.873-.993L.988 1H4V.545c0-.267.177-.49.41-.536L4.5 0c.245 0 .45.193.492.447L5 .545V1h7V.545c0-.234.135-.434.326-.51l.084-.026L12.5 0zm2.314 7H1.185v7.8h13.63L14.814 7zm-9.171 5h4.714c.355 0 .643.224.643.5 0 .249-.233.455-.539.493l-.104.007H5.643C5.288 13 5 12.776 5 12.5c0-.249.233-.455.539-.493L5.643 12h4.714zm4.714-3c.355 0 .643.224.643.5s-.288.5-.643.5H5.643C5.288 10 5 9.776 5 9.5s.288-.5.643-.5zM4 2.199L1.185 2.2V6h13.629V2.2L13 2.199v1.256c0 .267-.177.49-.41.536L12.5 4c-.245 0-.45-.193-.492-.447L12 3.455V2.199H5v1.256c0 .267-.177.49-.41.536L4.5 4c-.245 0-.45-.193-.492-.447L4 3.455V2.199z"/>
</svg>
