<?xml version="1.0" encoding="UTF-8"?>
<svg xmlns="http://www.w3.org/2000/svg" xmlns:xlink="http://www.w3.org/1999/xlink" width="72pt" height="72pt" viewBox="0 0 72 72" version="1.1">
<g id="surface1">
<path style=" stroke:none;fill-rule:nonzero;fill:rgb(94.117647%,94.117647%,94.117647%);fill-opacity:1;" d="M 0 12 L 72 12 L 72 60 L 0 60 Z M 0 12 "/>
<path style=" stroke:none;fill-rule:nonzero;fill:rgb(84.705882%,0%,15.294118%);fill-opacity:1;" d="M 40.5 12 L 31.5 12 L 31.5 31.5 L 0 31.5 L 0 40.5 L 31.5 40.5 L 31.5 60 L 40.5 60 L 40.5 40.5 L 72 40.5 L 72 31.5 L 40.5 31.5 Z M 40.5 12 "/>
<path style=" stroke:none;fill-rule:nonzero;fill:rgb(0%,32.156863%,70.588235%);fill-opacity:1;" d="M 55.375 44.347656 L 72 53.582031 L 72 44.347656 Z M 55.375 44.347656 "/>
<path style=" stroke:none;fill-rule:nonzero;fill:rgb(0%,32.156863%,70.588235%);fill-opacity:1;" d="M 43.824219 44.347656 L 72 60 L 72 55.574219 L 51.792969 44.347656 Z M 43.824219 44.347656 "/>
<path style=" stroke:none;fill-rule:nonzero;fill:rgb(0%,32.156863%,70.588235%);fill-opacity:1;" d="M 64.496094 60 L 43.824219 48.515625 L 43.824219 60 Z M 64.496094 60 "/>
<path style=" stroke:none;fill-rule:nonzero;fill:rgb(94.117647%,94.117647%,94.117647%);fill-opacity:1;" d="M 43.824219 44.347656 L 72 60 L 72 55.574219 L 51.792969 44.347656 Z M 43.824219 44.347656 "/>
<path style=" stroke:none;fill-rule:nonzero;fill:rgb(84.705882%,0%,15.294118%);fill-opacity:1;" d="M 43.824219 44.347656 L 72 60 L 72 55.574219 L 51.792969 44.347656 Z M 43.824219 44.347656 "/>
<path style=" stroke:none;fill-rule:nonzero;fill:rgb(0%,32.156863%,70.588235%);fill-opacity:1;" d="M 12.703125 44.347656 L 0 51.40625 L 0 44.347656 Z M 12.703125 44.347656 "/>
<path style=" stroke:none;fill-rule:nonzero;fill:rgb(0%,32.156863%,70.588235%);fill-opacity:1;" d="M 28.175781 46.335938 L 28.175781 60 L 3.585938 60 Z M 28.175781 46.335938 "/>
<path style=" stroke:none;fill-rule:nonzero;fill:rgb(84.705882%,0%,15.294118%);fill-opacity:1;" d="M 20.207031 44.347656 L 0 55.574219 L 0 60 L 28.175781 44.347656 Z M 20.207031 44.347656 "/>
<path style=" stroke:none;fill-rule:nonzero;fill:rgb(0%,32.156863%,70.588235%);fill-opacity:1;" d="M 16.625 27.652344 L 0 18.414062 L 0 27.652344 Z M 16.625 27.652344 "/>
<path style=" stroke:none;fill-rule:nonzero;fill:rgb(0%,32.156863%,70.588235%);fill-opacity:1;" d="M 28.175781 27.652344 L 0 12 L 0 16.425781 L 20.207031 27.652344 Z M 28.175781 27.652344 "/>
<path style=" stroke:none;fill-rule:nonzero;fill:rgb(0%,32.156863%,70.588235%);fill-opacity:1;" d="M 7.503906 12 L 28.175781 23.484375 L 28.175781 12 Z M 7.503906 12 "/>
<path style=" stroke:none;fill-rule:nonzero;fill:rgb(94.117647%,94.117647%,94.117647%);fill-opacity:1;" d="M 28.175781 27.652344 L 0 12 L 0 16.425781 L 20.207031 27.652344 Z M 28.175781 27.652344 "/>
<path style=" stroke:none;fill-rule:nonzero;fill:rgb(84.705882%,0%,15.294118%);fill-opacity:1;" d="M 28.175781 27.652344 L 0 12 L 0 16.425781 L 20.207031 27.652344 Z M 28.175781 27.652344 "/>
<path style=" stroke:none;fill-rule:nonzero;fill:rgb(0%,32.156863%,70.588235%);fill-opacity:1;" d="M 59.296875 27.652344 L 72 20.59375 L 72 27.652344 Z M 59.296875 27.652344 "/>
<path style=" stroke:none;fill-rule:nonzero;fill:rgb(0%,32.156863%,70.588235%);fill-opacity:1;" d="M 43.824219 25.660156 L 43.824219 12 L 68.414062 12 Z M 43.824219 25.660156 "/>
<path style=" stroke:none;fill-rule:nonzero;fill:rgb(84.705882%,0%,15.294118%);fill-opacity:1;" d="M 51.792969 27.652344 L 72 16.425781 L 72 12 L 43.824219 27.652344 Z M 51.792969 27.652344 "/>
</g>
</svg>
