<svg xmlns="http://www.w3.org/2000/svg" width="24" height="24" viewBox="0 0 24 24">
    <path fill="#A8B3D6" fill-rule="nonzero" d="M4.024 7.2h3.193c1.138 0 2.2.443 2.956 1.199l2.76.001c.17 0 .338.01.502.031a4.154 4.154 0 0 1 2.758-1.225l.23-.006h3.193c2.15 0 3.91 1.574 4.019 3.546l.005.192v4.71c0 .378-.303.691-.696.74l-.109.007h-1l-.478 5.715c-.03.357-.326.64-.699.684l-.103.006h-5.098a.807.807 0 0 1-.747-.47l-.077.98a.76.76 0 0 1-.663.683l-.108.007H8.964a.768.768 0 0 1-.754-.583l-.017-.104-.043-.513H3.058c-.385 0-.71-.253-.787-.595l-.015-.096-.479-5.724H.805c-.408 0-.744-.282-.798-.647L0 15.636v-4.692c0-2 1.694-3.639 3.818-3.74l.206-.004h3.193zm8.91 2.695H9.866c-1.225 0-2.232.924-2.314 2.09l-.006.153V16.1h.877c.366 0 .676.247.754.584l.017.103.03.368.137.01-.067.814.383 4.526h3.47l.46-5.715a.76.76 0 0 1 .662-.682l.108-.008h.876v-3.962c0-1.236-1.04-2.243-2.32-2.243zm6.682-1.2h-3.193c-.473 0-.925.128-1.31.358.967.64 1.619 1.693 1.682 2.893l.005.192v4.71c0 .378-.29.691-.668.74l-.105.007h-.13l.306 3.71h3.607l.479-5.715c.03-.357.326-.64.699-.684l.103-.006h.939v-3.962c0-1.237-1.083-2.243-2.414-2.243zm-12.399.003H4.024c-1.275 0-2.324.925-2.409 2.092l-.005.154v3.944h.912c.385 0 .711.252.788.595l.014.095.48 5.724H7.41l.3-3.702v-.004h-.937a.765.765 0 0 1-.766-.646L6 16.848v-4.71c0-1.428.833-2.672 2.054-3.301a2.56 2.56 0 0 0-.837-.14zM12 1.2c1.654 0 3 1.346 3 3s-1.346 3-3 3-3-1.346-3-3 1.346-3 3-3zM18.6 0c1.654 0 3 1.346 3 3s-1.346 3-3 3-3-1.346-3-3 1.346-3 3-3zM5.4 0c1.654 0 3 1.346 3 3s-1.346 3-3 3-3-1.346-3-3 1.346-3 3-3zM12 2.7c-.827 0-1.5.673-1.5 1.5s.673 1.5 1.5 1.5 1.5-.673 1.5-1.5-.673-1.5-1.5-1.5zm6.6-1.2c-.827 0-1.5.673-1.5 1.5s.673 1.5 1.5 1.5 1.5-.673 1.5-1.5-.673-1.5-1.5-1.5zm-13.2 0c-.827 0-1.5.673-1.5 1.5s.673 1.5 1.5 1.5S6.9 3.827 6.9 3s-.673-1.5-1.5-1.5z"/>
</svg>
