<svg xmlns="http://www.w3.org/2000/svg" width="21" height="24" viewBox="0 0 21 24">
    <g fill="#A8B3D6" fill-rule="nonzero">
        <path d="M20.713 8.734L11.064.214a.853.853 0 0 0-1.128 0l-9.65 8.52A.848.848 0 0 0 0 9.37v12.88c0 .47.381.85.851.85H20.15a.85.85 0 0 0 .851-.85V9.37a.847.847 0 0 0-.287-.636zm-1.416 12.667H1.703V9.753l8.797-7.77 8.797 7.77V21.4z"/>
        <path d="M13.858 13.65H8.192a.848.848 0 0 0-.842.854v7.546h1.683v-6.692h3.984v6.692H14.7v-7.546a.848.848 0 0 0-.842-.854z"/>
    </g>
</svg>
