<svg xmlns="http://www.w3.org/2000/svg" width="26" height="20" viewBox="0 0 26 20">
    <path fill="#A8B3D6" fill-rule="nonzero" d="M9.294 0c.472 0 .86.348.914.796l.006.105v.956h14.908c.448 0 .817.35.871.8l.007.115V15.8c0 .467-.335.852-.768.908l-.11.007H18.57v.928h1.921c.478 0 .865.417.865.93 0 .473-.33.863-.756.92l-.109.008h-7.555c-.478 0-.866-.416-.866-.929 0-.473.33-.864.757-.92l.109-.008.991-.001v-.928h-3.714v1.885a.908.908 0 0 1-.813.895l-.107.006H.92a.914.914 0 0 1-.914-.796L0 18.599V.9C0 .44.355.058.813.006L.92 0h8.374zm-.92 1.803H1.84v15.894h6.534V1.803zm8.34 14.911h-.929v.928h.929v-.928zm-12.06-2.785h.907c.519 0 .939.415.939.928a.932.932 0 0 1-.83.922l-.109.007h-.908a.934.934 0 0 1-.939-.929c0-.476.363-.869.83-.922l.11-.006h.907zm19.589-.93H10.214v1.884h3.714v-.026h1.858l-.001.026h.929v-.026h1.857v.026h5.673L24.243 13zm0-9.311l-14.029-.001v7.455h14.029V3.688zM6.542 7.428c.49 0 .888.416.888.93 0 .475-.343.868-.784.921l-.104.007H3.673c-.49 0-.887-.416-.887-.929 0-.476.342-.869.783-.922l.104-.006H6.54zm0-2.785c.49 0 .888.416.888.928 0 .513-.398.929-.888.929H3.673c-.49 0-.887-.416-.887-.929 0-.512.397-.928.887-.928z"/>
</svg>
