<svg xmlns="http://www.w3.org/2000/svg" width="25" height="24" viewBox="0 0 25 24">
    <path fill="#A8B3D6" fill-rule="nonzero" d="M17.966 4.808c3.878 0 7.034 3.235 7.034 7.211 0 3.895-3.028 7.08-6.798 7.208l-.236.004-4.013-.001 2.174 2.417a.838.838 0 0 1-.006 1.137l-.088.083a.92.92 0 0 1-.588.21c-.211 0-.42-.07-.588-.209l-.095-.09-3.191-3.548h-.107a.895.895 0 0 1-.88-.794l-.007-.114a.93.93 0 0 1 .039-.268.833.833 0 0 1 .108-.724l.07-.09 3.967-4.438a.927.927 0 0 1 1.27-.094.84.84 0 0 1 .171 1.125l-.073.094-3.115 3.485h4.952c2.828 0 5.142-2.3 5.256-5.17l.005-.223c0-2.974-2.36-5.393-5.261-5.393a.898.898 0 0 1-.887-.91c0-.501.397-.908.887-.908zm-9-4.598a.928.928 0 0 1 1.272.09l3.966 4.41c.198.219.262.51.192.776.017.073.027.15.027.23a.902.902 0 0 1-.775.903l-.112.007-.036-.001-3.26 3.65a.911.911 0 0 1-.559.293l-.126.009a.92.92 0 0 1-.586-.208.84.84 0 0 1-.098-1.22l2.255-2.524H7.034c-2.9 0-5.26 2.42-5.26 5.394s2.36 5.394 5.26 5.394c.49 0 .887.407.887.909a.898.898 0 0 1-.887.909C3.156 19.23 0 15.996 0 12.019 0 8.124 3.028 4.94 6.798 4.812l.236-.004 4.877-.001-3.038-3.378A.838.838 0 0 1 8.879.293z"/>
</svg>
