<svg xmlns="http://www.w3.org/2000/svg" width="20" height="20" viewBox="0 0 20 20">
    <g fill="#333539" fill-rule="nonzero">
        <path d="M9.996 5.843a4.173 4.173 0 0 0-4.169 4.168 4.173 4.173 0 0 0 4.169 4.168 4.173 4.173 0 0 0 4.168-4.168 4.173 4.173 0 0 0-4.168-4.168zm0 6.669a2.504 2.504 0 0 1-2.501-2.501 2.504 2.504 0 0 1 2.5-2.501 2.504 2.504 0 0 1 2.502 2.5 2.504 2.504 0 0 1-2.501 2.502z"/>
        <path d="M19.285 7.52l-2.37-.382 1.417-1.884a.834.834 0 0 0-.073-1.087l-2.368-2.402a.831.831 0 0 0-1.093-.082l-1.937 1.36L12.486.71a.833.833 0 0 0-.823-.701H8.328a.833.833 0 0 0-.825.715l-.39 2.363-1.927-1.41a.832.832 0 0 0-1.081.083L1.745 4.11a.833.833 0 0 0-.077 1.092L3.05 7.136l-2.335.333A.833.833 0 0 0 0 8.294v3.335a.83.83 0 0 0 .715.824l2.37.382-1.417 1.884a.833.833 0 0 0 .077 1.091l2.36 2.36a.832.832 0 0 0 1.09.076l1.933-1.381.333 2.334c.059.41.41.715.826.715h3.335a.833.833 0 0 0 .825-.713l.382-2.37 1.884 1.418a.832.832 0 0 0 1.091-.077l2.36-2.36a.833.833 0 0 0 .076-1.09l-1.403-1.93 2.426-.284A.833.833 0 0 0 20 11.68V8.345a.833.833 0 0 0-.715-.825zm-2.653 3.616c-.62.08-1.137.496-1.33 1.03a1.674 1.674 0 0 0 .19 1.673l.982 1.305-1.336 1.335-1.31-.986c-.483-.357-1.123-.427-1.615-.205a1.659 1.659 0 0 0-1.083 1.34l-.23 1.619H9.01l-.23-1.608c-.081-.62-.497-1.137-1.03-1.33a1.675 1.675 0 0 0-1.674.19l-1.305.981-1.335-1.335.986-1.31c.356-.482.427-1.12.205-1.616a1.659 1.659 0 0 0-1.341-1.083l-1.619-.23V9.017l1.61-.23c.619-.082 1.136-.497 1.328-1.031a1.676 1.676 0 0 0-.187-1.673l-.982-1.304 1.34-1.336 1.348.986c.482.356 1.12.425 1.615.205a1.657 1.657 0 0 0 1.081-1.34l.231-1.62h1.902l.258 1.607c.08.62.495 1.14 1.032 1.333.546.24 1.184.171 1.67-.188l1.302-.974 1.354 1.373-.99 1.314c-.355.481-.426 1.12-.204 1.616a1.657 1.657 0 0 0 1.34 1.081l1.618.231v1.87l-1.701.199z"/>
    </g>
</svg>
