<svg xmlns="http://www.w3.org/2000/svg" width="23" height="23" viewBox="0 0 23 23">
    <path fill="#A8B3D6" fill-rule="nonzero" d="M22.066 17.576L12.64 8.297c.188-.617.29-1.275.29-1.903 0-1.661-.687-3.31-1.885-4.521l-.003-.003C9.268.09 6.585-.48 4.204.422a.91.91 0 0 0-.569.66c-.064.3.031.613.254.828l2.134 2.076-.499 1.455-1.35.455L2.037 3.74a.928.928 0 0 0-1.51.29C.168 4.897 0 5.648 0 6.394c0 1.66.687 3.308 1.884 4.52a6.474 6.474 0 0 0 6.027 1.741l9.588 9.438a3.308 3.308 0 0 0 2.285.907c.833 0 1.664-.31 2.293-.929 1.235-1.257 1.23-3.274-.01-4.495zm-1.3 3.227c-.536.528-1.428.522-1.978 0l-9.957-9.8a.928.928 0 0 0-.941-.22 4.611 4.611 0 0 1-4.688-1.13c-.867-.877-1.364-2.066-1.364-3.26 0-.083.004-.167.01-.252l1.416 1.427c.248.25.62.338.956.224l2.328-.784c.27-.09.482-.3.573-.567L7.95 4.03a.895.895 0 0 0-.225-.933L6.402 1.81A4.574 4.574 0 0 1 9.73 3.135c.866.878 1.362 2.065 1.362 3.259 0 .6-.128 1.239-.36 1.798a.894.894 0 0 0 .2.983l9.835 9.68c.536.528.532 1.407 0 1.948z"/>
</svg>
