<svg xmlns="http://www.w3.org/2000/svg" width="25" height="23" viewBox="0 0 25 23">
    <path fill="#A8B3D6" fill-rule="nonzero" d="M23.023 0a.78.78 0 0 1 .78.664l.007.104v3.226c0 .389-.296.71-.68.76l-.107.008h-.404v7.74a2.973 2.973 0 0 1 .075 4.7l.042.026a3.657 3.657 0 0 1 1.662 2.854l.007.227v1.495a.81.81 0 0 1-.7.809l-.1.006h-5.544a.805.805 0 0 1-.793-.713l-.006-.102v-1.495c0-.944.354-1.805.933-2.452h-3.057c.54.603.884 1.391.928 2.259l.005.193v1.495a.81.81 0 0 1-.699.809l-.1.006H9.728a.805.805 0 0 1-.793-.713l-.006-.102v-1.495c0-.944.353-1.805.933-2.452H6.805c.54.603.883 1.391.928 2.259l.005.193v1.495a.81.81 0 0 1-.7.809l-.1.006H1.396a.805.805 0 0 1-.794-.713l-.006-.102v-1.495c0-1.314.686-2.467 1.71-3.108a2.97 2.97 0 0 1 .075-4.699l.001-7.74h-.404a.78.78 0 0 1-.78-.664l-.007-.104V.768c0-.389.296-.71.68-.761L1.977 0h21.046zm-2.19 18.297c-1.02 0-1.89.84-1.966 1.864l-.006.148v.68h3.945v-.68c0-1.09-.904-2.012-1.973-2.012zm-16.666 0c-1.02 0-1.89.84-1.967 1.864l-.006.148v.68H6.14v-.68c0-1.09-.903-2.012-1.972-2.012zm8.333 0c-1.02 0-1.89.84-1.967 1.864l-.005.148v.68h3.944v-.68c0-1.09-.903-2.012-1.972-2.012zm8.929-13.535H3.57v7.203a2.979 2.979 0 0 1 3.572 2.916 2.96 2.96 0 0 1-.597 1.786h3.574a2.96 2.96 0 0 1-.596-1.786 2.98 2.98 0 0 1 2.976-2.976 2.98 2.98 0 0 1 2.976 2.976 2.96 2.96 0 0 1-.596 1.786h3.574a2.96 2.96 0 0 1-.597-1.786 2.98 2.98 0 0 1 3.572-2.916V4.762zm-.596 8.752c-.754 0-1.367.613-1.367 1.367s.613 1.368 1.367 1.368a1.37 1.37 0 0 0 1.368-1.368 1.37 1.37 0 0 0-1.368-1.367zm-16.666 0c-.754 0-1.368.613-1.368 1.367s.614 1.368 1.368 1.368c.754 0 1.367-.614 1.367-1.368 0-.754-.613-1.367-1.367-1.367zm8.333 0c-.754 0-1.367.613-1.367 1.367s.613 1.368 1.367 1.368 1.367-.614 1.367-1.368c0-.754-.613-1.367-1.367-1.367zm5.764-3.99c.433 0 .784.266.784.595 0 .329-.351.595-.784.595H7.926c-.433 0-.783-.266-.783-.595 0-.329.35-.595.783-.595zM7.92 7.143h5.59c.43 0 .777.266.777.595 0 .301-.292.55-.671.59l-.106.005H7.92c-.429 0-.776-.266-.776-.595 0-.301.292-.55.67-.59l.106-.005h5.59zm14.318-5.607H2.763v1.69h19.474v-1.69z"/>
</svg>
