<svg xmlns="http://www.w3.org/2000/svg" width="24" height="26" viewBox="0 0 24 26">
    <path fill="#A8B3D6" fill-rule="nonzero" d="M9.333 0c3.309 0 6 2.692 6 6a5.996 5.996 0 0 1-2.496 4.868c.485.232.95.51 1.39.833l2.945-1.594a.888.888 0 0 1 .72-.055l.115.05 5.533 2.92c.248.13.414.37.452.64l.008.116v4.064c0 3.394-2.062 6.435-5.253 7.748h-.002l-.002.002-.844.343a.89.89 0 0 1-.571.033l-.115-.04-.728-.316c-.93-.4-1.764-.949-2.474-1.61L.857 24a.856.856 0 0 1-.85-.745L0 23.148v-4.231c0-3.72 2.303-6.914 5.567-8.25A5.99 5.99 0 0 1 3.333 6c0-3.308 2.692-6 6-6zM17.6 11.836l-4.52 2.45V17.9c0 2.571 1.51 4.911 3.869 6.032l.238.108.389.168.498-.203c2.457-1.011 4.072-3.309 4.174-5.902l.005-.26v-3.551L17.6 11.836zM7.794 11.8c-3.363.547-5.956 3.4-6.075 6.868l-.004.248v3.38H12.6a8.277 8.277 0 0 1-1.26-4.058l-.008-.338v-4.122c0-.274.133-.529.353-.689l.099-.063.736-.399a7.016 7.016 0 0 0-1.964-.754 5.989 5.989 0 0 1-2.762-.073zm12.094 4.404a.873.873 0 0 1 1.245.127.916.916 0 0 1-.124 1.271l-3.422 2.86a.87.87 0 0 1-1.236-.115l-1.475-1.776a.917.917 0 0 1 .104-1.273.873.873 0 0 1 1.247.105l.912 1.099zM9.333 1.748A4.257 4.257 0 0 0 5.081 6a4.26 4.26 0 0 0 2.955 4.05 9.205 9.205 0 0 1 2.377.062A4.257 4.257 0 0 0 13.586 6a4.257 4.257 0 0 0-4.253-4.252z"/>
</svg>
