<svg xmlns="http://www.w3.org/2000/svg" width="17" height="21" viewBox="0 0 17 21">
    <path fill="#333539" fill-rule="nonzero" d="M12.731 9.623a5.053 5.053 0 0 0 .869-2.838V5.09C13.6 2.282 11.313 0 8.5 0 5.687 0 3.4 2.282 3.4 5.089v1.696c0 1.05.32 2.026.869 2.838C1.722 11.089 0 13.825 0 16.963v.848a2.55 2.55 0 0 0 2.55 2.544h11.9A2.55 2.55 0 0 0 17 17.811v-.848c0-3.138-1.722-5.874-4.269-7.34zM5.1 5.089a3.4 3.4 0 0 1 6.8 0v1.696a3.4 3.4 0 0 1-6.8 0V5.09zM15.3 17.81a.85.85 0 0 1-.85.848H2.55a.85.85 0 0 1-.85-.848v-.848a6.79 6.79 0 0 1 3.788-6.08 5.078 5.078 0 0 0 6.025 0 6.79 6.79 0 0 1 3.787 6.08v.848z"/>
</svg>
