<svg xmlns="http://www.w3.org/2000/svg" width="24" height="24" viewBox="0 0 24 24">
    <path fill="#A8B3D6" fill-rule="nonzero" d="M12 0c6.617 0 12 5.383 12 12s-5.383 12-12 12S0 18.617 0 12 5.383 0 12 0zm0 1.832C6.393 1.832 1.832 6.393 1.832 12c0 5.606 4.561 10.168 10.168 10.168 5.606 0 10.168-4.561 10.168-10.168 0-5.607-4.562-10.168-10.168-10.168zM11.87 6c.48 0 .87.413.87.922V11.3l2.005 2.126a.96.96 0 0 1 0 1.303.842.842 0 0 1-.615.27.842.842 0 0 1-.614-.27l-2.261-2.396a.95.95 0 0 1-.255-.651V6.922c0-.51.39-.922.87-.922z"/>
</svg>
